<svg xmlns="http://www.w3.org/2000/svg" viewBox="0 0 512 512" style="height: 512px; width: 512px;"><path d="M0 0h512v512H0z" fill="url(#pattern)" fill-opacity="1"></path><svg><defs><filter id="b" x="-.024" width="1.048" y="-.024" height="1.048" color-interpolation-filters="sRGB"><feGaussianBlur stdDeviation="4.823"></feGaussianBlur></filter><filter id="a" x="-.012" width="1.024" y="-.012" height="1.024" color-interpolation-filters="sRGB"><feGaussianBlur stdDeviation="2.55"></feGaussianBlur></filter><filter id="c" x="-.112" width="1.225" y="-.077" height="1.153" color-interpolation-filters="sRGB"><feGaussianBlur stdDeviation="15.63"></feGaussianBlur></filter><filter id="e" x="-.237" width="1.475" y="-.249" height="1.497" color-interpolation-filters="sRGB"><feGaussianBlur stdDeviation="18.7"></feGaussianBlur></filter><filter id="d" x="-.213" width="1.426" y="-.151" height="1.303" color-interpolation-filters="sRGB"><feGaussianBlur stdDeviation="18.7"></feGaussianBlur></filter></defs><path d="M196.6 1.207c-2.5 11.323-4.8 22.703-10.2 33.383-7-10.68-12.6-20.91-16.7-31.988L2.494 4.338C13 104.9 10.86 175.3 1.979 278.3L15.4 295.5l-9.494 6.3L2.6 462.7l1.019 45.9 112.681 3.1c3.6-16.1 6.5-32.5 13.2-47.3 4.5 14.4 5.7 29.4 7 44.4l160 .3c.8-6.1.7-8.1 2.3-14.4 5.1 4.5 7.8 9.5 10.6 14.5.8-10.1 3.9-19.8 7-29.5 4.8 9.2 6.7 19.4 8.8 29.5l185.2.4-4.6-78.2-21.4-8.2 21.3-4.9 5.8-395.47c-7-6.73-13.3-13.744-18-21.465l-15.1.114-2.1 20.321-1.4 47.23.8 84.87-8.6-97.14c9.3-16.86 2.2-39.69 5.7-55.239-92.1 1.696-184.1.685-276.2-.314z" overflow="visible" color="#000" fill="#ebc893" fill-rule="evenodd" stroke="#e0aa58" enable-background="accumulate"></path><path d="M196.6 1.203c-2.5 11.327-4.8 22.707-10.2 33.387-7-10.68-12.6-20.91-16.7-31.99L2.494 4.336C13 104.9 10.86 175.3 1.979 278.3L15.4 295.5l-9.494 6.3L2.6 462.7l1.019 45.9 112.681 3.1c.5-2.1-7.9-2.3-7.4-4.5L5.244 504.5l-.914-47.3 4.63-153.7 12.42-9-13.093-16.8C16.95 177.3 16.36 104 6.113 5.992l162.687.164c4 10.804 10.3 24.254 17.1 34.664 5.3-10.41 9.5-25.97 12-37.02 89.8.974 173.8 3.521 263.6 1.867 4.6 1.226 10.6.431 11.3-4.149-92.1 1.696-184.1.684-276.2-.315zm296.9.158l-15.1.116-.6 6.277 13.5-2.557c4.6 7.533 9.7 12.383 16.6 18.943l-4.6 389.06-19.9 9.9 4.1-.6 18.2-4.2 5.8-395.47c-7-6.73-13.3-13.748-18-21.469zm9.6 435.739l3.5 69.7-177.7.1c.4 2.1-4.1.2-3.7 2.3l185.2.4-4.6-78.2zm-370 25.1c-1 2.2-2.9.4-3.7 2.6 4.2 14 5.8 29.5 7.1 44l158 .3c1.9-5 .8-9.7 4.3-14.4 5.1 4.5 7.8 9.5 10.6 14.5.8-10.1 3.9-19.8 7-29.5 1.8 3.4 3.2 7 4.3 10.6-1.4-5.6-2.4-8.3-5.1-13.4-3 9.4-6.7 16.2-7.5 26-2.7-4.9-5.4-9.7-10.4-14.1-3.4 4.6-6.2 9.1-8 14l-147.6 3.4c-3.4-14.6-7.1-30.3-9-44z" overflow="visible" color="#000" opacity=".527" fill="#c87137" fill-rule="evenodd" filter="url(#a)" enable-background="accumulate"></path><path d="M200.1 16.1c-2.3 10.67-10.5 21.38-15.6 31.44-6.6-10.06-13.9-19.69-17.7-30.12L17.34 19.05C24.61 113.6 7.605 179.3 16.85 277l18.26 20.1L10.34 309l7.1 141.6.96 43.3 90.2 3.4c3.4-15.2 15-35.6 21.3-49.6 4.3 13.6 15.4 36.7 16.6 50.9l45.1.8 13.8-18.7 14.4 22.2 68.7-8.6c1.8-4.7 4.5-9.1 7.8-13.5 4.8 4.2 7.4 8.9 10 13.6.8-9.5 7.7-19.6 10.6-28.7 4.5 8.6 19.9 28.9 33.1 33.9l114.6 5.6 22.3-14.7 19.4 14.7-14.5-67.6-34.6-14.2 37.5-15.1 2.1-96.9-14.5-21.9 15.2-13.4 5.1-239.63c-5.2-21.09-11.8-24.89-16.9-20.22l-4.2 2.11 2 19.14.7 44.47-7.1 124.23-18.3-137.78c8.8-15.88-3.9-35.38-.6-50.02-67.1 1.24-140.4-13.332-202.8-3.28-14 2.25-23.7 21.31-36.9 24.48-4.3 1.03-13.9-23.45-18.4-23.5z" overflow="visible" enable-background="accumulate" filter="url(#b)" fill-rule="evenodd" fill="#f6e7d0" color="#000"></path><path d="M354 27.39l-70.3 96.91 46.4 97.6-56.2 43.6 33 74.4-30.2 63.2 69.8 48.8 31.6 29.5 31.6-13.3L365.9 335l55.5-36.5 2.1-146.1-56.9-101.83zM116.6 55.48L89.9 123.6s33.7 65.3 35.8 68.8c2.1 3.6-7 118-7 118l42.8 73.8s9.9-82.9 7.1-83.6c-2.8-.7-29.5-42.1-29.5-42.1l23.8-84.3-36.5-37.2z" color="#000" overflow="visible" fill="#f2dbb9" fill-rule="evenodd" filter="url(#c)" enable-background="accumulate"></path><path d="M39.33 172.1l-5.62 108.1L74.45 328 42.84 464.9l96.96-39.3 30.2 42.9 74.4-38.7-80.8-169.9-60.4-16.9z" color="#000" overflow="visible" fill="#eed3a4" fill-rule="evenodd" enable-background="accumulate" filter="url(#d)"></path><path d="M266.9 66.72L324.5 191 434 221.2l21.8-111.6-41.4-68.86z" color="#000" overflow="visible" fill="#eed3a4" fill-rule="evenodd" enable-background="accumulate" filter="url(#e)"></path></svg><g class="" transform="translate(0,0)" style="touch-action: none;"><path d="M375.483 251.243l-109.98 51.138.213 183.381L477.01 266.346l-86.993-21.81zm-12.736 108.626l-5.947 14.699-48.604-8.955 5.007-12.832a141.306 141.306 0 0 0 13.51-11.358 167.184 167.184 0 0 0 16.566-17.517 170.478 170.478 0 0 0 12.606-17.958 115.607 115.607 0 0 0 9.514-17.97l14.068 2.51q-9.37 22.334-30.361 44.43-13.296 13.64-20.645 18.636zM121.603 244.334l-84.71 21.763L246.474 486V302.38l-109.946-51.137zm19.147 50.852a28.72 28.72 0 0 1 24.273 6.802 53.052 53.052 0 0 1 11.226 14.188l-13.081 2.676a28.542 28.542 0 0 0-5.388-7.374q-5.185-4.876-11.262-3.853l-.487.095a6.458 6.458 0 0 0-5.162 4.448c-.856 2.378-.238 5.554 1.796 9.371q4.08 7.6 10.81 9.027a23.785 23.785 0 0 0 8.563-.203l1.867-.344 5.791 10.822q-6.398 1.427-8.23 3.282-3.21 3.14.429 9.93a17.042 17.042 0 0 0 6.089 6.696 10.406 10.406 0 0 0 7.385 1.534l.416-.083q4.757-.964 5.079-4.757c.261-2.57-.655-5.744-2.748-9.514l12.38-2.545a49.247 49.247 0 0 1 4.103 11.226 19.956 19.956 0 0 1-.642 9.383 11.702 11.702 0 0 1-3.96 5.411 19.575 19.575 0 0 1-8.027 3.235l-1.19.214a27.971 27.971 0 0 1-17.494-2.7 32.193 32.193 0 0 1-14.128-14.092q-3.627-6.79-2.604-12.19a8.396 8.396 0 0 1 2.521-4.947h-.071q-1.844.31-7.04-2.497a32.11 32.11 0 0 1-12.916-13.593q-5.245-9.764-3.282-18.398 1.962-8.634 13.676-11zM27.19 248.865l108.78-116.309a7.135 7.135 0 0 1 1.427 0h.154q3.14.345 2.842 3.71a19.36 19.36 0 0 1-3.294 8.1 39.376 39.376 0 0 1-9.728 10.405q-3.912 2.938-15.044 9.514-12.796 7.505-19.55 14.77a92.535 92.535 0 0 0-11.513 14.486l32.907 3.758 8.182-12.963-20.967-2.378a36.415 36.415 0 0 1 4.757-3.83q2.379-1.605 8.444-5.125l6.422-3.747a92.975 92.975 0 0 0 12.903-8.776 61.472 61.472 0 0 0 12.51-14.414q6.84-10.846 6.494-17.957c-.19-3.949-2.105-6.434-5.684-7.505l79.798-85.161-102.097 179.576-5.708 10.06zm367.238-71.974q-3.817-5.458-3.758-8.515c0-2.033 1.19-3.199 3.568-3.448h.57a11.892 11.892 0 0 1 6.91 2.247 29.85 29.85 0 0 1 7.837 8.051q3.687 5.28 3.71 8.397c0 2.093-1.188 3.258-3.496 3.567h-.594a11.75 11.75 0 0 1-6.957-2.378 29.79 29.79 0 0 1-7.79-7.885zm-109.41-141.52l83.948 89.634h-1.189c-.38 0-.975 0-1.463.107q-7.825.892-8.324 6.862-.5 5.97 5.03 13.747a53.778 53.778 0 0 0 6.375 7.374 37.901 37.901 0 0 0 10.144 6.897q-2.117 2.89-.702 7.98a37.283 37.283 0 0 0 5.613 11.096 55.122 55.122 0 0 0 15.223 14.806q8.098 5.268 16.066 4.935.81 0 1.618-.13 8.776-.988 9.228-7.873a16.114 16.114 0 0 0-.463-4.853l58.689 62.686-91.572-22.941-6.1-10.703zm98.22 104.927l2.45 2.617c.451.57.903 1.189 1.355 1.784 1.808 2.592 2.723 4.757 2.723 6.529 0 1.771-1.034 2.782-3.127 3.02h-.512a10.346 10.346 0 0 1-6.077-1.95 22.596 22.596 0 0 1-6.184-6.137c-1.974-2.83-2.937-5.102-2.878-6.814.06-1.713 1.118-2.7 3.187-2.937h.524a10.263 10.263 0 0 1 6.005 1.879 19.147 19.147 0 0 1 2.533 2.01zM255.987 26L137.456 231.026l118.532 55.05 118.604-55.05zm-1.19 208.463q-17.529 0-24.58-12.273-7.053-12.273-7.053-34.988 0-22.714 7.052-35.047 7.052-12.332 24.582-12.344 17.53 0 24.582 12.332 7.052 12.333 7.052 35.047 0 22.715-7.052 34.988-7.053 12.273-24.582 12.285zm10.538-71.807q2.497 7.968 2.497 24.546 0 15.817-2.497 24.201-2.498 8.384-10.537 8.325-8.04 0-10.632-8.325-2.593-8.324-2.593-24.2 0-16.579 2.593-24.547t10.632-7.968q8.015-.012 10.513 7.956z" fill="#b57204" fill-opacity="1" transform="translate(512, 512) scale(-1, -1) rotate(-540, 256, 256)"></path></g><g class="" transform="translate(92,32)" style="touch-action: none;"><g transform="translate(243.2, 243.2) scale(-0.6, -0.6) rotate(0, 128, 128)"><circle cx="128" cy="128" r="128" fill="#b57204" fill-opacity="1"></circle><circle stroke="#ffe0af" stroke-opacity="1" fill="#b57204" fill-opacity="1" stroke-width="18" cx="128" cy="128" r="101"></circle><path fill="#ffe0af" fill-opacity="1" d="M166 136.8q-4.8 0-7.5 4.2-2.6 4.1-2.6 11.9 0 7.8 2.6 12 2.6 4.1 7.5 4.1t7.5-4.1q2.6-4.2 2.6-12t-2.7-11.9q-2.6-4.2-7.4-4.2zm0-11.4q12.6 0 19.9 7.3 7.3 7.4 7.3 20.2 0 12.8-7.3 20.3-7.3 7.4-19.9 7.4-12.6 0-19.9-7.4-7.3-7.5-7.3-20.3t7.3-20.1q7.3-7.4 19.9-7.4zm-62.2 55.2H88.75L152.1 75.42h15.1zM89.84 75.42q12.66 0 19.86 7.4 7.2 7.34 7.2 20.18 0 12.8-7.2 20.2-7.2 7.4-19.86 7.4-12.63 0-19.93-7.4-7.12-7.4-7.12-20.2 0-12.84 7.12-20.18 7.3-7.4 19.93-7.4zm0 11.41q-4.89 0-7.5 4.21-2.69 4.2-2.69 11.96 0 7.8 2.69 12.1 2.61 4.2 7.5 4.2 4.88 0 7.46-4.2 2.65-4.3 2.65-12.1 0-7.76-2.65-11.96-2.64-4.21-7.46-4.21z"></path></g></g></svg>