<svg xmlns="http://www.w3.org/2000/svg" viewBox="0 0 512 512" style="height: 512px; width: 512px;"><path d="M0 0h512v512H0z" fill="url(#pattern)" fill-opacity="1"></path><svg><defs><filter id="b" x="-.024" width="1.048" y="-.024" height="1.048" color-interpolation-filters="sRGB"><feGaussianBlur stdDeviation="4.823"></feGaussianBlur></filter><filter id="a" x="-.012" width="1.024" y="-.012" height="1.024" color-interpolation-filters="sRGB"><feGaussianBlur stdDeviation="2.55"></feGaussianBlur></filter><filter id="c" x="-.112" width="1.225" y="-.077" height="1.153" color-interpolation-filters="sRGB"><feGaussianBlur stdDeviation="15.63"></feGaussianBlur></filter><filter id="e" x="-.237" width="1.475" y="-.249" height="1.497" color-interpolation-filters="sRGB"><feGaussianBlur stdDeviation="18.7"></feGaussianBlur></filter><filter id="d" x="-.213" width="1.426" y="-.151" height="1.303" color-interpolation-filters="sRGB"><feGaussianBlur stdDeviation="18.7"></feGaussianBlur></filter></defs><path d="M196.6 1.207c-2.5 11.323-4.8 22.703-10.2 33.383-7-10.68-12.6-20.91-16.7-31.988L2.494 4.338C13 104.9 10.86 175.3 1.979 278.3L15.4 295.5l-9.494 6.3L2.6 462.7l1.019 45.9 112.681 3.1c3.6-16.1 6.5-32.5 13.2-47.3 4.5 14.4 5.7 29.4 7 44.4l160 .3c.8-6.1.7-8.1 2.3-14.4 5.1 4.5 7.8 9.5 10.6 14.5.8-10.1 3.9-19.8 7-29.5 4.8 9.2 6.7 19.4 8.8 29.5l185.2.4-4.6-78.2-21.4-8.2 21.3-4.9 5.8-395.47c-7-6.73-13.3-13.744-18-21.465l-15.1.114-2.1 20.321-1.4 47.23.8 84.87-8.6-97.14c9.3-16.86 2.2-39.69 5.7-55.239-92.1 1.696-184.1.685-276.2-.314z" overflow="visible" color="#000" fill="#ebc893" fill-rule="evenodd" stroke="#e0aa58" enable-background="accumulate"></path><path d="M196.6 1.203c-2.5 11.327-4.8 22.707-10.2 33.387-7-10.68-12.6-20.91-16.7-31.99L2.494 4.336C13 104.9 10.86 175.3 1.979 278.3L15.4 295.5l-9.494 6.3L2.6 462.7l1.019 45.9 112.681 3.1c.5-2.1-7.9-2.3-7.4-4.5L5.244 504.5l-.914-47.3 4.63-153.7 12.42-9-13.093-16.8C16.95 177.3 16.36 104 6.113 5.992l162.687.164c4 10.804 10.3 24.254 17.1 34.664 5.3-10.41 9.5-25.97 12-37.02 89.8.974 173.8 3.521 263.6 1.867 4.6 1.226 10.6.431 11.3-4.149-92.1 1.696-184.1.684-276.2-.315zm296.9.158l-15.1.116-.6 6.277 13.5-2.557c4.6 7.533 9.7 12.383 16.6 18.943l-4.6 389.06-19.9 9.9 4.1-.6 18.2-4.2 5.8-395.47c-7-6.73-13.3-13.748-18-21.469zm9.6 435.739l3.5 69.7-177.7.1c.4 2.1-4.1.2-3.7 2.3l185.2.4-4.6-78.2zm-370 25.1c-1 2.2-2.9.4-3.7 2.6 4.2 14 5.8 29.5 7.1 44l158 .3c1.9-5 .8-9.7 4.3-14.4 5.1 4.5 7.8 9.5 10.6 14.5.8-10.1 3.9-19.8 7-29.5 1.8 3.4 3.2 7 4.3 10.6-1.4-5.6-2.4-8.3-5.1-13.4-3 9.4-6.7 16.2-7.5 26-2.7-4.9-5.4-9.7-10.4-14.1-3.4 4.6-6.2 9.1-8 14l-147.6 3.4c-3.4-14.6-7.1-30.3-9-44z" overflow="visible" color="#000" opacity=".527" fill="#c87137" fill-rule="evenodd" filter="url(#a)" enable-background="accumulate"></path><path d="M200.1 16.1c-2.3 10.67-10.5 21.38-15.6 31.44-6.6-10.06-13.9-19.69-17.7-30.12L17.34 19.05C24.61 113.6 7.605 179.3 16.85 277l18.26 20.1L10.34 309l7.1 141.6.96 43.3 90.2 3.4c3.4-15.2 15-35.6 21.3-49.6 4.3 13.6 15.4 36.7 16.6 50.9l45.1.8 13.8-18.7 14.4 22.2 68.7-8.6c1.8-4.7 4.5-9.1 7.8-13.5 4.8 4.2 7.4 8.9 10 13.6.8-9.5 7.7-19.6 10.6-28.7 4.5 8.6 19.9 28.9 33.1 33.9l114.6 5.6 22.3-14.7 19.4 14.7-14.5-67.6-34.6-14.2 37.5-15.1 2.1-96.9-14.5-21.9 15.2-13.4 5.1-239.63c-5.2-21.09-11.8-24.89-16.9-20.22l-4.2 2.11 2 19.14.7 44.47-7.1 124.23-18.3-137.78c8.8-15.88-3.9-35.38-.6-50.02-67.1 1.24-140.4-13.332-202.8-3.28-14 2.25-23.7 21.31-36.9 24.48-4.3 1.03-13.9-23.45-18.4-23.5z" overflow="visible" enable-background="accumulate" filter="url(#b)" fill-rule="evenodd" fill="#f6e7d0" color="#000"></path><path d="M354 27.39l-70.3 96.91 46.4 97.6-56.2 43.6 33 74.4-30.2 63.2 69.8 48.8 31.6 29.5 31.6-13.3L365.9 335l55.5-36.5 2.1-146.1-56.9-101.83zM116.6 55.48L89.9 123.6s33.7 65.3 35.8 68.8c2.1 3.6-7 118-7 118l42.8 73.8s9.9-82.9 7.1-83.6c-2.8-.7-29.5-42.1-29.5-42.1l23.8-84.3-36.5-37.2z" color="#000" overflow="visible" fill="#f2dbb9" fill-rule="evenodd" filter="url(#c)" enable-background="accumulate"></path><path d="M39.33 172.1l-5.62 108.1L74.45 328 42.84 464.9l96.96-39.3 30.2 42.9 74.4-38.7-80.8-169.9-60.4-16.9z" color="#000" overflow="visible" fill="#eed3a4" fill-rule="evenodd" enable-background="accumulate" filter="url(#d)"></path><path d="M266.9 66.72L324.5 191 434 221.2l21.8-111.6-41.4-68.86z" color="#000" overflow="visible" fill="#eed3a4" fill-rule="evenodd" enable-background="accumulate" filter="url(#e)"></path></svg><g class="" transform="translate(3,-5)" style=""><path d="M362.906 29.53c-11.523 11.09-23.063 23.04-34.5 34.5l-.594-11.374-.5-8.593-4.03 4.5-34.063 37.78c1.504 1.355 2.897 2.865 4.186 4.5l28.625-31.75.595 11.344v.032l.5 8.56 4.03-4.5 35.75-45zm-102.5 7.345c-.202.007-.543.063-1.47.063-9.874 0-18.81 10.648-18.81 24.906 0 7.198 2.404 13.675 6 18.187l3.843 4.782-6.095.938c-11.23 1.74-17.873 10.124-21.47 22.78-3.375 11.884-3.442 27.175-1 42.032h15.657l.218 3.344 3.595 54.5H275.5l4.063-54.53.25-3.314h16.5c2.712-15.118 2.154-30.222-1.594-41.906-3.986-12.42-11.072-20.653-21.22-22.562l-5.938-1.125 3.875-4.657c3.758-4.533 6.282-11.065 6.282-18.438 0-13.375-7.965-23.773-16.94-24.938l-.374-.062zm-123 21.438l42.78 38.437 4.72 3.75-.937-8.53.03-.032-1.313-11.282 32.813 25.97c.006-.023.025-.042.03-.064.592-2.08 1.294-4.09 2.095-6.03l-37.938-30.063-4.75-3.75.938 8.53v.03l1.344 11.314c-13.194-9.388-26.6-19.27-39.814-28.28zm167.188 62.968c.752 6.547.817 13.456.187 20.5l59.19 49.876-28.845 2.47v.03l-21.72 2 11.72 9.906 9.156 7.72-9.78 51.843-1.125 5.938 7.125-4.813v.03l9.406-6.436c-2.196 16.04-4.71 32.486-6.562 48.375L347.53 253l1.126-5.938-7.125 4.782h-.03l-9.375 6.406 7.563-39.938 62.5 52.657c1.763-5.292 4.22-10.092 7.437-14.095l-57.656-48.563 28.874-2.437v-.03l21.75-2-11.75-9.876-43.72-36.845 38.313-7.906-6.25 9.5v.03l-4.656 7.188 5.908-1.22 55.437-15.124c-15.856 2.117-32.22 4.91-48.22 7.375l6.25-9.5v-.032l4.69-7.188-5.908 1.22-51.5 10.655-36.593-30.844zm-131.78.657l-12.97 56-1 5.938 7.03-4.938 9.25-6.593-5.843 35.125-35.905 73.03c4.675 2.935 8.446 7.525 10.906 13.094l30.19-61.406 9.343 27.406.03.03L191 280.22l6.78-13.783 3.876-7.875 42.125-19.343-3.936 10.686-2.938 8.063 5.5-2.533 50.625-27.187c-14.973 5.627-30.302 12.03-45.342 18.03l3.968-10.655v-.03l2.938-8.064-5.5 2.532-43.156 19.813 26.937-54.78L230.812 164l-37.28 75.844-9.345-27.406-.03-.032-6.407-18.5 4.844-29.125 1-5.936-7.03 4.937-9.25 6.626c1.84-16.085 3.996-32.543 5.5-48.47zM-7.064 164.47l-12.188 9.655 19.844 25.03.062-24.968-7.718-9.718zm503.718 3.655c-3.743 7.56-7.457 15.157-11.187 22.625l-4.158-10.625-3.187-7.97-2.406 5.532-12.47 28.532c1.51 1.893 2.82 4.013 3.906 6.31l10.688-24.468L482 198.656v.03l3.188 7.94 2.406-5.5 9.03-24.782.032-8.22zm-481.03 25l-.032 24.97L57.53 271l-28.75-3.313-.03.032-13.25-1.44-.03 9.69 1.124 1.405 61.312 77.375c.087-.323.16-.65.25-.97 1.575-5.542 3.888-10.66 6.97-14.967l-42.69-53.875 28.752 3.343h.03l21.72 2.376-9.532-12.03-48.687-61.407 38.343 13.874 5.656 2.03-3.595-7.78h.03l-4.843-10.313c15.484 4.726 31.297 9.83 46.688 14.19l-52.75-22.907-5.656-2.032 3.593 7.782h-.03L67 222.375l-39.5-14.28-11.875-14.97zm430.655 10.688c-.198.007-.57.062-1.5.062-9.875 0-18.78 10.68-18.78 24.938 0 7.197 2.405 13.643 6 18.156l3.813 4.78-6.063.938c-11.23 1.74-17.904 10.124-21.5 22.78-3.376 11.885-3.414 27.204-.97 42.063h15.658l.218 3.314 3.594 54.5h34.625l4.063-54.53.218-3.283h16.499c2.72-15.128 2.19-30.244-1.562-41.936-3.985-12.42-11.07-20.654-21.22-22.563l-5.937-1.124 3.844-4.656c3.758-4.532 6.314-11.064 6.314-18.438 0-13.375-7.964-23.773-16.938-24.937l-.375-.063zm-323.25 80.28c-.198.008-.57.063-1.5.063-9.875 0-18.78 10.65-18.78 24.906 0 7.198 2.405 13.675 6 18.188l3.813 4.78-6.063.94c-11.23 1.74-17.904 10.123-21.5 22.78-3.378 11.89-3.418 27.196-.97 42.063H99.69l.218 3.312 3.594 54.5h34.625l4.063-54.53.218-3.283h16.499c2.72-15.13 2.19-30.245-1.562-41.937-3.985-12.42-11.07-20.653-21.22-22.563l-5.936-1.125 3.843-4.656c3.758-4.53 6.314-11.063 6.314-18.436 0-13.375-7.964-23.773-16.938-24.938l-.375-.062zm275.94 25.688l-30.908 23.845 1.438-11.28 1.03-8.5-4.78 3.655-43.22 37.906c13.325-8.852 26.82-18.553 40.126-27.78l-1.47 11.312h.033l-1.064 8.53 4.78-3.687 34.908-26.936c-.356-2.35-.643-4.706-.875-7.063zM167.81 382.03c-.058 2.353-.22 4.737-.437 7.126l37.03 25.313 4.97 3.405-1.53-8.438-2.095-11.187c13.81 8.453 27.848 17.358 41.656 25.438l-45.344-35.375-4.968-3.407 1.53 8.438 2.095 11.187-32.907-22.5zm293.594.44l6.688 36.686 1.062 5.938 4.938-7.03 6.47-9.377c3.712 15.76 7.27 32.007 11.248 47.5l-6.78-57.093-1.063-5.938-4.94 7-6.467 9.375-4.938-27.06H461.405zM80.312 404.936l-18.5 36.938-3.593-10.813h-.032l-2.75-8.125-2.688 5.407-22.53 52.875c8.167-13.754 16.134-28.352 24.124-42.44l3.562 10.814.032.03 2.75 8.126 2.687-5.406 23.78-47.406h-6.842z" fill="#b57204" fill-opacity="1" transform="translate(51.2, 51.2) scale(0.8, 0.8) rotate(0, 256, 256) skewX(0) skewY(0)"></path></g><g class="" transform="translate(212,292)" style=""><g transform="translate(12.8, 12.8) scale(0.6, 0.6) rotate(0, 128, 128)"><circle cx="128" cy="128" r="128" fill="#b57204" fill-opacity="1"></circle><circle stroke="#fff" stroke-opacity="1" fill="#b57204" fill-opacity="1" stroke-width="18" cx="128" cy="128" r="101"></circle><path fill="#fff" fill-opacity="1" d="M128 204c16-24 68-78 68-94 0-24-20-39.824-36-40-16 0-32 10-32 30 0-20-16-30-32-30-16-.176-36 16-36 40 0 16 52 70 68 94z"></path></g></g></svg>